<svg xmlns="http://www.w3.org/2000/svg" width="30" height="30" viewBox="0 0 64 64"><path d="M4.5 47.84c0 .55.45 1 1 1h25.27c.55 0 1-.45 1-1 0-7.3-4.56-13.42-10.65-14.95 3.56-1.24 6.13-4.62 6.13-8.6 0-5.03-4.09-9.12-9.12-9.12-5.03 0-9.12 4.09-9.12 9.12 0 3.98 2.57 7.36 6.13 8.6C9.06 34.42 4.5 40.54 4.5 47.84zm6.52-23.56c0-3.92 3.19-7.12 7.12-7.12s7.12 3.19 7.12 7.12-3.19 7.12-7.12 7.12-7.12-3.2-7.12-7.12zm7.11 10.22c6.12 0 11.16 5.45 11.6 12.34H6.53c.45-6.89 5.48-12.34 11.6-12.34zM48.85 32.88c3.56-1.24 6.13-4.62 6.13-8.6 0-5.03-4.09-9.12-9.12-9.12-5.03 0-9.12 4.09-9.12 9.12 0 3.98 2.57 7.36 6.13 8.6-6.08 1.54-10.65 7.65-10.65 14.95 0 .55.45 1 1 1H58.5c.55 0 1-.45 1-1 0-7.29-4.56-13.41-10.65-14.95zm-10.1-8.6c0-3.92 3.19-7.12 7.12-7.12s7.12 3.19 7.12 7.12-3.19 7.12-7.12 7.12-7.12-3.2-7.12-7.12zm-4.49 22.56c.45-6.89 5.48-12.34 11.6-12.34 6.12 0 11.15 5.45 11.6 12.34h-23.2z" /></svg>