<svg xmlns="http://www.w3.org/2000/svg" viewBox="0 0 33 33">
<!--  <path stroke="currentColor" stroke-width="1.5" d="M2.5 12c0-4.23 0-6.345 1.198-7.747.17-.2.356-.385.555-.555C5.655 2.5 7.77 2.5 12 2.5s6.345 0 7.747 1.198c.2.17.385.356.555.555C21.5 5.655 21.5 7.77 21.5 12s0 6.345-1.198 7.747c-.17.2-.356.385-.555.555C18.345 21.5 16.23 21.5 12 21.5s-6.345 0-7.747-1.198c-.2-.17-.385-.356-.555-.555C2.5 18.345 2.5 16.23 2.5 12Z"/><path stroke="currentColor" stroke-linecap="round" stroke-width="1.5" d="m8 17.5 8-10"/>-->
  <path stroke="currentColor" d="M12.745 20.54l10.97-8.19c.539-.4 1.307-.244 1.564.38 1.349 3.288.746 7.241-1.938 9.955-2.683 2.714-6.417 3.31-9.83 1.954l-3.728 1.745c5.347 3.697 11.84 2.782 15.898-1.324 3.219-3.255 4.216-7.692 3.284-11.693l.008.009c-1.351-5.878.332-8.227 3.782-13.031L33 0l-4.54 4.59v-.014L12.743 20.544m-2.263 1.987c-3.837-3.707-3.175-9.446.1-12.755 2.42-2.449 6.388-3.448 9.852-1.979l3.72-1.737c-.67-.49-1.53-1.017-2.515-1.387-4.455-1.854-9.789-.931-13.41 2.728-3.483 3.523-4.579 8.94-2.697 13.561 1.405 3.454-.899 5.898-3.22 8.364C1.49 30.2.666 31.074 0 32l10.478-9.466"></path>
</svg>