<svg xmlns="http://www.w3.org/2000/svg" viewBox="0 5 64 55"><path d="M59.985 37.051v-.002a2.26 2.26 0 0 0-.841-1.513 2.242 2.242 0 0 0-1.666-.48 2.249 2.249 0 0 0-1.521.846L52.46 40.31V20.17c0-4.684-3.81-8.495-8.495-8.495H24.962a2.27 2.27 0 0 0-2.267 2.266 2.27 2.27 0 0 0 2.267 2.268h19.003a3.966 3.966 0 0 1 3.961 3.962v20.14l-1.578-1.995c-1.057-1.334-1.608-2.029-1.946-2.39l.028-.025c-.794-1.003-2.156-1.156-3.172-.358-.873.692-1.254 2.068-.379 3.174l5.968 7.524a4.29 4.29 0 0 0 6.714-.027l5.946-7.494a2.246 2.246 0 0 0 .478-1.67ZM39.08 47.79H20.045a3.966 3.966 0 0 1-3.961-3.962l-.02-.4c.036-.91.031-2.829.02-7.516v-.11c-.01-3.846-.02-8.76-.013-12.124l3.507 4.42c.377.476.916.775 1.512.844a2.258 2.258 0 0 0 1.673-.475c.475-.376.775-.916.844-1.518.07-.603-.1-1.196-.477-1.667l-5.967-7.522a4.289 4.289 0 0 0-6.714.025l-5.956 7.506c-.785 1.01-.617 2.37.391 3.168 1.006.793 2.368.64 3.168-.36l3.497-4.397v20.126c0 4.685 3.811 8.496 8.496 8.496h19.033c1.445-.031 2.224-1.194 2.224-2.27.002-1.073-.777-2.23-2.222-2.264Z"/></svg>