<svg height="200" width="200" xmlns="http://www.w3.org/2000/svg" viewBox="0 0 512 512" stroke="#000" stroke-width="5.632"><path d="M393.983 154.726a25.592 25.592 0 0 0-22.784-13.926h-53.052l38.716-106.453a25.615 25.615 0 0 0-3.089-23.433A25.606 25.606 0 0 0 332.799 0h-140.8c-11.75 0-21.99 7.996-24.832 19.388l-51.2 204.8a25.595 25.595 0 0 0 4.659 21.965A25.587 25.587 0 0 0 140.799 256h53.521l-77.679 221.944c-4.207 12.006 1.05 25.284 12.331 31.164a25.573 25.573 0 0 0 11.81 2.893c8.013 0 15.838-3.763 20.787-10.641l230.4-320a25.575 25.575 0 0 0 2.014-26.634zM140.799 486.4l89.6-256h-89.6l51.2-204.8h140.8l-51.2 140.8h89.6l-230.4 320z"/></svg>