<svg xmlns="http://www.w3.org/2000/svg" viewBox="0 0 512 512"><path d="M255.937 457.368a5.998 5.998 0 0 1-4.243-1.758c-26.73-26.729-53.144-50.354-78.687-73.2-38.18-34.149-74.244-66.404-99.88-99.801-28.739-37.438-42.125-73.188-42.125-112.51 0-63.669 51.798-115.467 115.466-115.467 56.013 0 84.496 28.428 109.468 75.035 24.973-46.607 53.456-75.035 109.467-75.035 63.738 0 115.594 51.798 115.594 115.467 0 39.304-13.387 75.041-42.13 112.465-25.638 33.382-61.697 65.619-99.874 99.748-25.587 22.876-52.046 46.529-78.814 73.298a5.994 5.994 0 0 1-4.242 1.758zM146.469 66.632c-57.051 0-103.466 46.415-103.466 103.467 0 79.934 60.901 134.405 138.004 203.367 24.319 21.751 49.422 44.203 74.93 69.439 25.547-25.274 50.697-47.759 75.06-69.539 77.102-68.929 138.001-123.373 138.001-203.267 0-57.052-46.472-103.467-103.594-103.467-47.774 0-75.016 20.616-104.101 78.784a6 6 0 0 1-10.734 0c-29.083-58.168-56.324-78.784-104.1-78.784z"     stroke="black"
  stroke-width="30"
  fill="none"  /></svg>