<svg width="30px" height="30px" xmlns="http://www.w3.org/2000/svg" viewBox="0 0 64 64" ><path d="M4.5,47.84c0,0.55,0.45,1,1,1h25.27c0.55,0,1-0.45,1-1c0-7.3-4.56-13.42-10.65-14.95c3.56-1.24,6.13-4.62,6.13-8.6  c0-5.03-4.09-9.12-9.12-9.12c-5.03,0-9.12,4.09-9.12,9.12c0,3.98,2.57,7.36,6.13,8.6C9.06,34.42,4.5,40.54,4.5,47.84z M11.02,24.28  c0-3.92,3.19-7.12,7.12-7.12s7.12,3.19,7.12,7.12s-3.19,7.12-7.12,7.12S11.02,28.2,11.02,24.28z M18.13,34.5  c6.12,0,11.16,5.45,11.6,12.34H6.53C6.98,39.95,12.01,34.5,18.13,34.5z"/><path d="M48.85,32.88c3.56-1.24,6.13-4.62,6.13-8.6c0-5.03-4.09-9.12-9.12-9.12c-5.03,0-9.12,4.09-9.12,9.12  c0,3.98,2.57,7.36,6.13,8.6c-6.08,1.54-10.65,7.65-10.65,14.95c0,0.55,0.45,1,1,1H58.5c0.55,0,1-0.45,1-1  C59.5,40.54,54.94,34.42,48.85,32.88z M38.75,24.28c0-3.92,3.19-7.12,7.12-7.12s7.12,3.19,7.12,7.12s-3.19,7.12-7.12,7.12  S38.75,28.2,38.75,24.28z M34.26,46.84c0.45-6.89,5.48-12.34,11.6-12.34c6.12,0,11.15,5.45,11.6,12.34H34.26z"/> </svg>